<svg width="24" height="24" viewBox="0 0 24 24" fill="none" xmlns="http://www.w3.org/2000/svg">
    <path d="M4.31798 6.31801C3.90011 6.73587 3.56864 7.23195 3.34249 7.77792C3.11634 8.32389 2.99994 8.90906 2.99994 9.50001C2.99994 10.091 3.11634 10.6761 3.34249 11.2221C3.56864 11.7681 3.90011 12.2641 4.31798 12.682L12 20.364L19.682 12.682C20.5259 11.8381 21 10.6935 21 9.50001C21 8.30653 20.5259 7.16193 19.682 6.31801C18.8381 5.47409 17.6935 4.99998 16.5 4.99998C15.3065 4.99998 14.1619 5.47409 13.318 6.31801L12 7.63601L10.682 6.31801C10.2641 5.90014 9.76804 5.56867 9.22207 5.34252C8.6761 5.11637 8.09093 4.99997 7.49998 4.99997C6.90903 4.99997 6.32386 5.11637 5.77789 5.34252C5.23192 5.56867 4.73584 5.90014 4.31798 6.31801V6.31801Z" stroke="#9B9B9B" stroke-width="2" stroke-linecap="round" stroke-linejoin="round"/>
</svg>
