<svg width="18" height="15" viewBox="0 0 18 15" fill="none" xmlns="http://www.w3.org/2000/svg">
<path d="M2.59837 2.26501C2.25014 2.61323 1.97391 3.02663 1.78546 3.4816C1.597 3.93657 1.5 4.42421 1.5 4.91667C1.5 5.40914 1.597 5.89677 1.78546 6.35175C1.97391 6.80672 2.25014 7.22012 2.59837 7.56834L9.00003 13.97L15.4017 7.56834C16.105 6.86508 16.5001 5.91124 16.5001 4.91667C16.5001 3.92211 16.105 2.96827 15.4017 2.26501C14.6984 1.56174 13.7446 1.16665 12.75 1.16665C11.7555 1.16665 10.8016 1.56174 10.0984 2.26501L9.00003 3.36334L7.9017 2.26501C7.55348 1.91678 7.14008 1.64056 6.68511 1.4521C6.23013 1.26364 5.74249 1.16664 5.25003 1.16664C4.75757 1.16664 4.26993 1.26364 3.81496 1.4521C3.35999 1.64056 2.94659 1.91678 2.59837 2.26501V2.26501Z" stroke="url(#paint0_linear_4575_451)" stroke-width="2" stroke-linecap="round" stroke-linejoin="round"/>
<defs>
<linearGradient id="paint0_linear_4575_451" x1="16.5001" y1="1.16664" x2="0.373212" y2="2.79234" gradientUnits="userSpaceOnUse">
<stop stop-color="#845FA2"/>
<stop offset="1" stop-color="#34283E"/>
</linearGradient>
</defs>
</svg>
