<svg width="17" height="15" viewBox="0 0 17 15" fill="none" xmlns="http://www.w3.org/2000/svg">
<path fill-rule="evenodd" clip-rule="evenodd" d="M1.17212 2.172C1.92223 1.42212 2.93947 1.00085 4.00012 1.00085C5.06078 1.00085 6.07801 1.42212 6.82812 2.172L8.00012 3.343L9.17212 2.172C9.54111 1.78996 9.98249 1.48523 10.4705 1.27559C10.9585 1.06596 11.4834 0.955614 12.0145 0.950999C12.5456 0.946383 13.0724 1.04759 13.5639 1.24871C14.0555 1.44984 14.5021 1.74685 14.8777 2.12242C15.2533 2.49799 15.5503 2.9446 15.7514 3.43618C15.9525 3.92777 16.0537 4.45449 16.0491 4.98561C16.0445 5.51672 15.9342 6.0416 15.7245 6.52962C15.5149 7.01763 15.2102 7.45901 14.8281 7.828L8.00012 14.657L1.17212 7.828C0.422238 7.07789 0.000976562 6.06066 0.000976562 5C0.000976563 3.93934 0.422238 2.92211 1.17212 2.172Z" fill="#E7B944"/>
</svg>
