<svg width="18" height="21" viewBox="0 0 18 21" fill="none" xmlns="http://www.w3.org/2000/svg">
<path d="M14.657 14.657L10.414 18.9C10.2284 19.0858 10.0081 19.2331 9.76556 19.3336C9.52303 19.4342 9.26305 19.4859 9.0005 19.4859C8.73796 19.4859 8.47798 19.4342 8.23544 19.3336C7.99291 19.2331 7.77256 19.0858 7.587 18.9L3.343 14.657C2.22422 13.5382 1.46234 12.1127 1.15369 10.5609C0.845043 9.00904 1.00349 7.40053 1.60901 5.93874C2.21452 4.47696 3.2399 3.22755 4.55548 2.34852C5.87107 1.46949 7.41777 1.00031 9 1.00031C10.5822 1.00031 12.1289 1.46949 13.4445 2.34852C14.7601 3.22755 15.7855 4.47696 16.391 5.93874C16.9965 7.40053 17.155 9.00904 16.8463 10.5609C16.5377 12.1127 15.7758 13.5382 14.657 14.657V14.657Z" stroke="url(#paint0_linear_56_608)" stroke-width="2" stroke-linecap="round" stroke-linejoin="round"/>
<path d="M12 9C12 9.79565 11.6839 10.5587 11.1213 11.1213C10.5587 11.6839 9.79565 12 9 12C8.20435 12 7.44129 11.6839 6.87868 11.1213C6.31607 10.5587 6 9.79565 6 9C6 8.20435 6.31607 7.44129 6.87868 6.87868C7.44129 6.31607 8.20435 6 9 6C9.79565 6 10.5587 6.31607 11.1213 6.87868C11.6839 7.44129 12 8.20435 12 9V9Z" stroke="url(#paint1_linear_56_608)" stroke-width="2" stroke-linecap="round" stroke-linejoin="round"/>
<defs>
<linearGradient id="paint0_linear_56_608" x1="17" y1="1.00031" x2="-0.280863" y2="2.2873" gradientUnits="userSpaceOnUse">
<stop stop-color="#845FA2"/>
<stop offset="1" stop-color="#34283E"/>
</linearGradient>
<linearGradient id="paint1_linear_56_608" x1="12" y1="6" x2="5.53162" y2="6.55657" gradientUnits="userSpaceOnUse">
<stop stop-color="#845FA2"/>
<stop offset="1" stop-color="#34283E"/>
</linearGradient>
</defs>
</svg>
