<svg width="24" height="24" viewBox="0 0 24 24" fill="none" xmlns="http://www.w3.org/2000/svg">
    <path d="M16 7C16 8.06087 15.5786 9.07828 14.8284 9.82843C14.0783 10.5786 13.0609 11 12 11C10.9391 11 9.92172 10.5786 9.17157 9.82843C8.42143 9.07828 8 8.06087 8 7C8 5.93913 8.42143 4.92172 9.17157 4.17157C9.92172 3.42143 10.9391 3 12 3C13.0609 3 14.0783 3.42143 14.8284 4.17157C15.5786 4.92172 16 5.93913 16 7Z" fill="url(#paint0_linear_56_516)" stroke="url(#paint1_linear_56_516)" stroke-width="2" stroke-linecap="round" stroke-linejoin="round"/>
    <path d="M12 14C10.1435 14 8.36301 14.7375 7.05025 16.0503C5.7375 17.363 5 19.1435 5 21H19C19 19.1435 18.2625 17.363 16.9497 16.0503C15.637 14.7375 13.8565 14 12 14Z" fill="url(#paint2_linear_56_516)" stroke="url(#paint3_linear_56_516)" stroke-width="2" stroke-linecap="round" stroke-linejoin="round"/>
    <defs>
        <linearGradient id="paint0_linear_56_516" x1="16" y1="3" x2="7.3755" y2="3.74209" gradientUnits="userSpaceOnUse">
            <stop stop-color="#845FA2"/>
            <stop offset="1" stop-color="#34283E"/>
        </linearGradient>
        <linearGradient id="paint1_linear_56_516" x1="16" y1="3" x2="7.3755" y2="3.74209" gradientUnits="userSpaceOnUse">
            <stop stop-color="#845FA2"/>
            <stop offset="1" stop-color="#34283E"/>
        </linearGradient>
        <linearGradient id="paint2_linear_56_516" x1="19" y1="14" x2="4.23271" y2="16.5413" gradientUnits="userSpaceOnUse">
            <stop stop-color="#845FA2"/>
            <stop offset="1" stop-color="#34283E"/>
        </linearGradient>
        <linearGradient id="paint3_linear_56_516" x1="19" y1="14" x2="4.23271" y2="16.5413" gradientUnits="userSpaceOnUse">
            <stop stop-color="#845FA2"/>
            <stop offset="1" stop-color="#34283E"/>
        </linearGradient>
    </defs>
</svg>
